<svg width="16" height="16" viewBox="0 0 16 16" fill="currentCo" xmlns="http://www.w3.org/2000/svg">
<path fill-rule="evenodd" clip-rule="evenodd" d="M8 16C12.4183 16 16 12.4183 16 8C16 3.58172 12.4183 0 8 0C3.58172 0 0 3.58172 0 8C0 12.4183 3.58172 16 8 16ZM8 14.75C4.27208 14.75 1.25 11.7279 1.25 8C1.25 4.27208 4.27208 1.25 8 1.25C11.7279 1.25 14.75 4.27208 14.75 8C14.75 11.7279 11.7279 14.75 8 14.75ZM10.2929 11.7071L8 9.41421L5.70711 11.7071L4.29289 10.2929L6.58579 8L4.29289 5.70711L5.70711 4.29289L8 6.58579L10.2929 4.29289L11.7071 5.70711L9.41421 8L11.7071 10.2929L10.2929 11.7071Z" fill="#0F1B26"/>
</svg>
