<svg width="23" height="24" viewBox="0 0 23 24" fill="none" xmlns="http://www.w3.org/2000/svg">
<path fill-rule="evenodd" clip-rule="evenodd" d="M11.5514 23.4632C5.24885 23.4632 0.139648 18.354 0.139648 12.0515C0.139648 5.74899 5.24885 0.639786 11.5514 0.639786C17.8539 0.639786 22.9631 5.74899 22.9631 12.0515C22.9631 18.354 17.8539 23.4632 11.5514 23.4632ZM19.2274 17.3673C20.2742 15.8586 20.8877 14.0264 20.8877 12.051C20.8877 6.89436 16.7075 2.71411 11.5508 2.71411C6.39424 2.71411 2.21398 6.89436 2.21398 12.051C2.21398 14.0265 2.82752 15.8587 3.87445 17.3675C5.03924 15.8288 7.77285 15.1663 11.5246 15.1632C9.21418 15.151 7.40113 13.5184 7.40113 9.97615C7.40113 7.64791 9.03933 5.82643 11.5508 5.82643C14.0554 5.82643 15.7006 7.81993 15.7006 10.1836C15.7006 13.573 13.8661 15.1512 11.5773 15.1632C15.3289 15.1663 18.0625 15.8287 19.2274 17.3673ZM17.7389 19.0429C17.4352 17.9511 15.2539 17.2381 11.551 17.2381C7.84786 17.2381 5.66651 17.9512 5.36302 19.0431C7.01043 20.5021 9.1772 21.3878 11.5508 21.3878C13.9246 21.3878 16.0915 20.502 17.7389 19.0429ZM9.47599 9.97593C9.47599 12.3301 10.3248 13.0882 11.5508 13.0882C12.7726 13.0882 13.6257 12.3603 13.6257 10.1834C13.6257 8.88706 12.812 7.90107 11.5508 7.90107C10.2372 7.90107 9.47599 8.74743 9.47599 9.97593Z" fill="currentColor"/>
</svg>
